<svg width="298" height="252" viewBox="0 0 298 252" fill="none" xmlns="http://www.w3.org/2000/svg">
<path d="M9.5 24H187.5C187.5 24 194.5 24 202.5 24C210.5 24 218 26.5 218 26.5L214.557 55.0299L238.557 55.0299L235.566 79.463H264.566C264.566 79.463 266 93.5 260.5 111C254.529 130 246 138.5 246 138.5C246 138.5 234.5 152.5 215.5 159.5C196.5 166.5 177 164.5 177 164.5L169 231H125L138.56 120.5H189.06L196 67H0L9.5 24Z" fill="#FCFCFC"/>
<path d="M9.5 24.2L195.5 24C195.5 24 202 23.7 207 24.2C212 24.7 218 26.424 218 26.424L214.43 55.154L239 55.2781L236 79.6781H265C265 79.6781 266.5 95.0781 261.5 109.578C256.5 124.078 259 120.078 252.5 130.078C246 140.078 241 144.678 241 144.678C232.377 69.3921 215.816 47.429 165.5 44.0781L5 44.2781L9.5 24.2Z" fill="black" fill-opacity="0.1"/>
<path d="M47.8 73.22H188.816L183.673 114H133.5L116.5 252H74L90.5 114H42.5L47.8 73.22Z" fill="#FCFCFC"/>
<path d="M251 0H276.5L273.5 25H297.5L294.5 49H270.5L267.5 73.5H242L245 49H221L224 25H248L251 0Z" fill="#FCFCFC"/>
<path d="M47.8614 73L188.731 73L184.231 108.78C184.231 108.78 180.931 91.78 154.431 91.78C127.931 91.78 45.5 91.78 45.5 91.78L47.8614 73Z" fill="black" fill-opacity="0.1"/>
<path d="M265.5 0H276.5L273.474 25H297.674L294.539 49H270.539L267.5 73.5H257L261.5 29.8L265.5 0Z" fill="black" fill-opacity="0.1"/>
</svg>
